
<svg width="41px" height="41px" viewBox="0 0 41 41" version="1.1" xmlns="http://www.w3.org/2000/svg" xmlns:xlink="http://www.w3.org/1999/xlink">
    <g  stroke="none" stroke-width="1" fill="none" fill-rule="evenodd">
        <g  transform="translate(-17.000000, -916.000000)" fill="#FFCC00" fill-rule="nonzero">
            <g  transform="translate(0.000000, 899.000000)">
                <g transform="translate(17.375141, 17.340960)">
                    <g  transform="translate(16.666667, 0.000000)">
                        <g  transform="translate(1.476824, 0.000000)">
                            <polygon  transform="translate(2.212633, 1.750102) rotate(18.000000) translate(-2.212633, -1.750102) " points="1.51818894 0.361213209 1.51818894 3.13899099 2.90707783 3.13899099"></polygon>
                            <g  transform="translate(1.750102, 1.750102) scale(-1, 1) translate(-1.750102, -1.750102) ">
                                <polygon  transform="translate(1.750102, 1.750102) rotate(18.000000) translate(-1.750102, -1.750102) " points="1.05565765 0.361213209 1.05565765 3.13899099 2.44454654 3.13899099"></polygon>
                            </g>
                        </g>
                        <g  transform="translate(1.556736, 0.183286)">
                            <g  transform="translate(3.082926, 2.425204) rotate(72.000000) translate(-3.082926, -2.425204) translate(1.101558, 0.675102)">
                                <polygon  transform="translate(2.212633, 1.750102) rotate(18.000000) translate(-2.212633, -1.750102) " points="1.51818894 0.361213209 1.51818894 3.13899099 2.90707783 3.13899099"></polygon>
                                <g  transform="translate(1.750102, 1.750102) scale(-1, 1) translate(-1.750102, -1.750102) translate(-0.000000, 0.000000)">
                                    <polygon  transform="translate(1.750102, 1.750102) rotate(18.000000) translate(-1.750102, -1.750102) " points="1.05565765 0.361213209 1.05565765 3.13899099 2.44454654 3.13899099"></polygon>
                                </g>
                            </g>
                            <g  transform="translate(2.631644, 3.814105) rotate(144.000000) translate(-2.631644, -3.814105) translate(0.650277, 2.064003)">
                                <g  transform="translate(0.000000, -0.000000)">
                                    <polygon  transform="translate(2.212633, 1.750102) rotate(18.000000) translate(-2.212633, -1.750102) " points="1.51818894 0.361213209 1.51818894 3.13899099 2.90707783 3.13899099"></polygon>
                                    <g  transform="translate(1.750102, 1.750102) scale(-1, 1) translate(-1.750102, -1.750102) translate(0.000000, 0.000000)">
                                        <polygon  transform="translate(1.750102, 1.750102) rotate(18.000000) translate(-1.750102, -1.750102) " points="1.05565765 0.361213209 1.05565765 3.13899099 2.44454654 3.13899099"></polygon>
                                    </g>
                                </g>
                            </g>
                        </g>
                        <g  transform="translate(2.679824, 3.380579) scale(-1, 1) translate(-2.679824, -3.380579) translate(0.000000, 0.183286)">
                            <g  transform="translate(3.082926, 2.425204) rotate(72.000000) translate(-3.082926, -2.425204) translate(1.101558, 0.675102)">
                                <g  transform="translate(-0.000000, -0.000000)">
                                    <polygon  transform="translate(2.212633, 1.750102) rotate(18.000000) translate(-2.212633, -1.750102) " points="1.51818894 0.361213209 1.51818894 3.13899099 2.90707783 3.13899099"></polygon>
                                    <g  transform="translate(1.750102, 1.750102) scale(-1, 1) translate(-1.750102, -1.750102) ">
                                        <polygon  transform="translate(1.750102, 1.750102) rotate(18.000000) translate(-1.750102, -1.750102) " points="1.05565765 0.361213209 1.05565765 3.13899099 2.44454654 3.13899099"></polygon>
                                    </g>
                                </g>
                            </g>
                            <g  transform="translate(2.631644, 3.814105) rotate(144.000000) translate(-2.631644, -3.814105) translate(0.650277, 2.064003)">
                                <g  transform="translate(0.000000, -0.000000)">
                                    <polygon  transform="translate(2.212633, 1.750102) rotate(18.000000) translate(-2.212633, -1.750102) " points="1.51818894 0.361213209 1.51818894 3.13899099 2.90707783 3.13899099"></polygon>
                                    <g  transform="translate(1.750102, 1.750102) scale(-1, 1) translate(-1.750102, -1.750102) translate(-0.000000, 0.000000)">
                                        <polygon  transform="translate(1.750102, 1.750102) rotate(18.000000) translate(-1.750102, -1.750102) " points="1.05565765 0.361213209 1.05565765 3.13899099 2.44454654 3.13899099"></polygon>
                                    </g>
                                </g>
                            </g>
                        </g>
                    </g>
                    <g  transform="translate(16.666667, 33.333333)">
                        <g  transform="translate(1.476824, 0.000000)">
                            <polygon  transform="translate(2.212633, 1.750102) rotate(18.000000) translate(-2.212633, -1.750102) " points="1.51818894 0.361213209 1.51818894 3.13899099 2.90707783 3.13899099"></polygon>
                            <g  transform="translate(1.750102, 1.750102) scale(-1, 1) translate(-1.750102, -1.750102) ">
                                <polygon  transform="translate(1.750102, 1.750102) rotate(18.000000) translate(-1.750102, -1.750102) " points="1.05565765 0.361213209 1.05565765 3.13899099 2.44454654 3.13899099"></polygon>
                            </g>
                        </g>
                        <g  transform="translate(1.556736, 0.183286)">
                            <g  transform="translate(3.082926, 2.425204) rotate(72.000000) translate(-3.082926, -2.425204) translate(1.101558, 0.675102)">
                                <g  transform="translate(0.000000, -0.000000)">
                                    <polygon  transform="translate(2.212633, 1.750102) rotate(18.000000) translate(-2.212633, -1.750102) " points="1.51818894 0.361213209 1.51818894 3.13899099 2.90707783 3.13899099"></polygon>
                                    <g  transform="translate(1.750102, 1.750102) scale(-1, 1) translate(-1.750102, -1.750102) translate(0.000000, 0.000000)">
                                        <polygon  transform="translate(1.750102, 1.750102) rotate(18.000000) translate(-1.750102, -1.750102) " points="1.05565765 0.361213209 1.05565765 3.13899099 2.44454654 3.13899099"></polygon>
                                    </g>
                                </g>
                            </g>
                            <g  transform="translate(2.631644, 3.814105) rotate(144.000000) translate(-2.631644, -3.814105) translate(0.650277, 2.064003)">
                                <g  transform="translate(0.000000, 0.000000)">
                                    <polygon  transform="translate(2.212633, 1.750102) rotate(18.000000) translate(-2.212633, -1.750102) " points="1.51818894 0.361213209 1.51818894 3.13899099 2.90707783 3.13899099"></polygon>
                                    <g  transform="translate(1.750102, 1.750102) scale(-1, 1) translate(-1.750102, -1.750102) translate(0.000000, 0.000000)">
                                        <polygon  transform="translate(1.750102, 1.750102) rotate(18.000000) translate(-1.750102, -1.750102) " points="1.05565765 0.361213209 1.05565765 3.13899099 2.44454654 3.13899099"></polygon>
                                    </g>
                                </g>
                            </g>
                        </g>
                        <g  transform="translate(2.679824, 3.380579) scale(-1, 1) translate(-2.679824, -3.380579) translate(0.000000, 0.183286)">
                            <g  transform="translate(3.082926, 2.425204) rotate(72.000000) translate(-3.082926, -2.425204) translate(1.101558, 0.675102)">
                                <g  transform="translate(0.000000, -0.000000)">
                                    <polygon  transform="translate(2.212633, 1.750102) rotate(18.000000) translate(-2.212633, -1.750102) " points="1.51818894 0.361213209 1.51818894 3.13899099 2.90707783 3.13899099"></polygon>
                                    <g  transform="translate(1.750102, 1.750102) scale(-1, 1) translate(-1.750102, -1.750102) translate(0.000000, 0.000000)">
                                        <polygon  transform="translate(1.750102, 1.750102) rotate(18.000000) translate(-1.750102, -1.750102) " points="1.05565765 0.361213209 1.05565765 3.13899099 2.44454654 3.13899099"></polygon>
                                    </g>
                                </g>
                            </g>
                            <g  transform="translate(2.631644, 3.814105) rotate(144.000000) translate(-2.631644, -3.814105) translate(0.650277, 2.064003)">
                                <g  transform="translate(-0.000000, 0.000000)">
                                    <polygon  transform="translate(2.212633, 1.750102) rotate(18.000000) translate(-2.212633, -1.750102) " points="1.51818894 0.361213209 1.51818894 3.13899099 2.90707783 3.13899099"></polygon>
                                    <g  transform="translate(1.750102, 1.750102) scale(-1, 1) translate(-1.750102, -1.750102) ">
                                        <polygon  transform="translate(1.750102, 1.750102) rotate(18.000000) translate(-1.750102, -1.750102) " points="1.05565765 0.361213209 1.05565765 3.13899099 2.44454654 3.13899099"></polygon>
                                    </g>
                                </g>
                            </g>
                        </g>
                    </g>
                    <g  transform="translate(0.000000, 0.291879)">
                        <g  transform="translate(0.000000, 16.374788)">
                            <g  transform="translate(1.476824, 0.000000)">
                                <polygon  transform="translate(2.212633, 1.750102) rotate(18.000000) translate(-2.212633, -1.750102) " points="1.51818894 0.361213209 1.51818894 3.13899099 2.90707783 3.13899099"></polygon>
                                <g  transform="translate(1.750102, 1.750102) scale(-1, 1) translate(-1.750102, -1.750102) ">
                                    <polygon  transform="translate(1.750102, 1.750102) rotate(18.000000) translate(-1.750102, -1.750102) " points="1.05565765 0.361213209 1.05565765 3.13899099 2.44454654 3.13899099"></polygon>
                                </g>
                            </g>
                            <g  transform="translate(1.556736, 0.183286)">
                                <g  transform="translate(3.082926, 2.425204) rotate(72.000000) translate(-3.082926, -2.425204) translate(1.101558, 0.675102)">
                                    <polygon  transform="translate(2.212633, 1.750102) rotate(18.000000) translate(-2.212633, -1.750102) " points="1.51818894 0.361213209 1.51818894 3.13899099 2.90707783 3.13899099"></polygon>
                                    <g  transform="translate(1.750102, 1.750102) scale(-1, 1) translate(-1.750102, -1.750102) translate(-0.000000, 0.000000)">
                                        <polygon  transform="translate(1.750102, 1.750102) rotate(18.000000) translate(-1.750102, -1.750102) " points="1.05565765 0.361213209 1.05565765 3.13899099 2.44454654 3.13899099"></polygon>
                                    </g>
                                </g>
                                <g  transform="translate(2.631644, 3.814105) rotate(144.000000) translate(-2.631644, -3.814105) translate(0.650277, 2.064003)">
                                    <g  transform="translate(0.000000, -0.000000)">
                                        <polygon  transform="translate(2.212633, 1.750102) rotate(18.000000) translate(-2.212633, -1.750102) " points="1.51818894 0.361213209 1.51818894 3.13899099 2.90707783 3.13899099"></polygon>
                                        <g  transform="translate(1.750102, 1.750102) scale(-1, 1) translate(-1.750102, -1.750102) translate(0.000000, 0.000000)">
                                            <polygon  transform="translate(1.750102, 1.750102) rotate(18.000000) translate(-1.750102, -1.750102) " points="1.05565765 0.361213209 1.05565765 3.13899099 2.44454654 3.13899099"></polygon>
                                        </g>
                                    </g>
                                </g>
                            </g>
                            <g  transform="translate(2.679824, 3.380579) scale(-1, 1) translate(-2.679824, -3.380579) translate(0.000000, 0.183286)">
                                <g  transform="translate(3.082926, 2.425204) rotate(72.000000) translate(-3.082926, -2.425204) translate(1.101558, 0.675102)">
                                    <g  transform="translate(0.000000, 0.000000)">
                                        <polygon  transform="translate(2.212633, 1.750102) rotate(18.000000) translate(-2.212633, -1.750102) " points="1.51818894 0.361213209 1.51818894 3.13899099 2.90707783 3.13899099"></polygon>
                                        <g  transform="translate(1.750102, 1.750102) scale(-1, 1) translate(-1.750102, -1.750102) translate(0.000000, 0.000000)">
                                            <polygon  transform="translate(1.750102, 1.750102) rotate(18.000000) translate(-1.750102, -1.750102) " points="1.05565765 0.361213209 1.05565765 3.13899099 2.44454654 3.13899099"></polygon>
                                        </g>
                                    </g>
                                </g>
                                <g  transform="translate(2.631644, 3.814105) rotate(144.000000) translate(-2.631644, -3.814105) translate(0.650277, 2.064003)">
                                    <g  transform="translate(-0.000000, 0.000000)">
                                        <polygon  transform="translate(2.212633, 1.750102) rotate(18.000000) translate(-2.212633, -1.750102) " points="1.51818894 0.361213209 1.51818894 3.13899099 2.90707783 3.13899099"></polygon>
                                        <g  transform="translate(1.750102, 1.750102) scale(-1, 1) translate(-1.750102, -1.750102) translate(-0.000000, 0.000000)">
                                            <polygon  transform="translate(1.750102, 1.750102) rotate(18.000000) translate(-1.750102, -1.750102) " points="1.05565765 0.361213209 1.05565765 3.13899099 2.44454654 3.13899099"></polygon>
                                        </g>
                                    </g>
                                </g>
                            </g>
                        </g>
                        <g  transform="translate(11.965841, 4.693479) rotate(-144.000000) translate(-11.965841, -4.693479) translate(8.507649, 1.404543)">
                            <g  transform="translate(-0.000000, 0.000000)">
                                <g  transform="translate(1.476824, 0.000000)">
                                    <polygon  transform="translate(2.212633, 1.750102) rotate(18.000000) translate(-2.212633, -1.750102) " points="1.51818894 0.361213209 1.51818894 3.13899099 2.90707783 3.13899099"></polygon>
                                    <g  transform="translate(1.750102, 1.750102) scale(-1, 1) translate(-1.750102, -1.750102) translate(-0.000000, -0.000000)">
                                        <polygon  transform="translate(1.750102, 1.750102) rotate(18.000000) translate(-1.750102, -1.750102) " points="1.05565765 0.361213209 1.05565765 3.13899099 2.44454654 3.13899099"></polygon>
                                    </g>
                                </g>
                                <g  transform="translate(1.556736, 0.183286)">
                                    <g  transform="translate(3.082926, 2.425204) rotate(72.000000) translate(-3.082926, -2.425204) translate(1.101558, 0.675102)">
                                        <g  transform="translate(0.000000, -0.000000)">
                                            <polygon  transform="translate(2.212633, 1.750102) rotate(18.000000) translate(-2.212633, -1.750102) " points="1.51818894 0.361213209 1.51818894 3.13899099 2.90707783 3.13899099"></polygon>
                                            <g  transform="translate(1.750102, 1.750102) scale(-1, 1) translate(-1.750102, -1.750102) ">
                                                <polygon  transform="translate(1.750102, 1.750102) rotate(18.000000) translate(-1.750102, -1.750102) " points="1.05565765 0.361213209 1.05565765 3.13899099 2.44454654 3.13899099"></polygon>
                                            </g>
                                        </g>
                                    </g>
                                    <g  transform="translate(2.631644, 3.814105) rotate(144.000000) translate(-2.631644, -3.814105) translate(0.650277, 2.064003)">
                                        <g  transform="translate(0.000000, 0.000000)">
                                            <polygon  transform="translate(2.212633, 1.750102) rotate(18.000000) translate(-2.212633, -1.750102) " points="1.51818894 0.361213209 1.51818894 3.13899099 2.90707783 3.13899099"></polygon>
                                            <g  transform="translate(1.750102, 1.750102) scale(-1, 1) translate(-1.750102, -1.750102) ">
                                                <polygon  transform="translate(1.750102, 1.750102) rotate(18.000000) translate(-1.750102, -1.750102) " points="1.05565765 0.361213209 1.05565765 3.13899099 2.44454654 3.13899099"></polygon>
                                            </g>
                                        </g>
                                    </g>
                                </g>
                                <g  transform="translate(2.679824, 3.380579) scale(-1, 1) translate(-2.679824, -3.380579) translate(0.000000, 0.183286)">
                                    <g  transform="translate(-0.000000, -0.000000)">
                                        <g  transform="translate(3.082926, 2.425204) rotate(72.000000) translate(-3.082926, -2.425204) translate(1.101558, 0.675102)">
                                            <g  transform="translate(0.000000, -0.000000)">
                                                <polygon  transform="translate(2.212633, 1.750102) rotate(18.000000) translate(-2.212633, -1.750102) " points="1.51818894 0.361213209 1.51818894 3.13899099 2.90707783 3.13899099"></polygon>
                                                <g  transform="translate(1.750102, 1.750102) scale(-1, 1) translate(-1.750102, -1.750102) ">
                                                    <polygon  transform="translate(1.750102, 1.750102) rotate(18.000000) translate(-1.750102, -1.750102) " points="1.05565765 0.361213209 1.05565765 3.13899099 2.44454654 3.13899099"></polygon>
                                                </g>
                                            </g>
                                        </g>
                                        <g  transform="translate(2.631644, 3.814105) rotate(144.000000) translate(-2.631644, -3.814105) translate(0.650277, 2.064003)">
                                            <g  transform="translate(-0.000000, 0.000000)">
                                                <polygon  transform="translate(2.212633, 1.750102) rotate(18.000000) translate(-2.212633, -1.750102) " points="1.51818894 0.361213209 1.51818894 3.13899099 2.90707783 3.13899099"></polygon>
                                                <g  transform="translate(1.750102, 1.750102) scale(-1, 1) translate(-1.750102, -1.750102) translate(-0.000000, 0.000000)">
                                                    <polygon  transform="translate(1.750102, 1.750102) rotate(18.000000) translate(-1.750102, -1.750102) " points="1.05565765 0.361213209 1.05565765 3.13899099 2.44454654 3.13899099"></polygon>
                                                </g>
                                            </g>
                                        </g>
                                    </g>
                                </g>
                            </g>
                        </g>
                        <g  transform="translate(5.516787, 10.793903) rotate(144.000000) translate(-5.516787, -10.793903) translate(2.058594, 7.504967)">
                            <g  transform="translate(0.000000, 0.000000)">
                                <g  transform="translate(1.476824, 0.000000)">
                                    <polygon  transform="translate(2.212633, 1.750102) rotate(18.000000) translate(-2.212633, -1.750102) " points="1.51818894 0.361213209 1.51818894 3.13899099 2.90707783 3.13899099"></polygon>
                                    <g  transform="translate(1.750102, 1.750102) scale(-1, 1) translate(-1.750102, -1.750102) translate(-0.000000, -0.000000)">
                                        <polygon  transform="translate(1.750102, 1.750102) rotate(18.000000) translate(-1.750102, -1.750102) " points="1.05565765 0.361213209 1.05565765 3.13899099 2.44454654 3.13899099"></polygon>
                                    </g>
                                </g>
                                <g  transform="translate(1.556736, 0.183286)">
                                    <g  transform="translate(3.082926, 2.425204) rotate(72.000000) translate(-3.082926, -2.425204) translate(1.101558, 0.675102)">
                                        <g  transform="translate(0.000000, 0.000000)">
                                            <polygon  transform="translate(2.212633, 1.750102) rotate(18.000000) translate(-2.212633, -1.750102) " points="1.51818894 0.361213209 1.51818894 3.13899099 2.90707783 3.13899099"></polygon>
                                            <g  transform="translate(1.750102, 1.750102) scale(-1, 1) translate(-1.750102, -1.750102) ">
                                                <polygon  transform="translate(1.750102, 1.750102) rotate(18.000000) translate(-1.750102, -1.750102) " points="1.05565765 0.361213209 1.05565765 3.13899099 2.44454654 3.13899099"></polygon>
                                            </g>
                                        </g>
                                    </g>
                                    <g  transform="translate(2.631644, 3.814105) rotate(144.000000) translate(-2.631644, -3.814105) translate(0.650277, 2.064003)">
                                        <polygon  transform="translate(2.212633, 1.750102) rotate(18.000000) translate(-2.212633, -1.750102) " points="1.51818894 0.361213209 1.51818894 3.13899099 2.90707783 3.13899099"></polygon>
                                        <g  transform="translate(1.750102, 1.750102) scale(-1, 1) translate(-1.750102, -1.750102) translate(-0.000000, -0.000000)">
                                            <polygon  transform="translate(1.750102, 1.750102) rotate(18.000000) translate(-1.750102, -1.750102) " points="1.05565765 0.361213209 1.05565765 3.13899099 2.44454654 3.13899099"></polygon>
                                        </g>
                                    </g>
                                </g>
                                <g  transform="translate(2.679824, 3.380579) scale(-1, 1) translate(-2.679824, -3.380579) translate(-0.000000, 0.183286)">
                                    <g  transform="translate(0.000000, 0.000000)">
                                        <g  transform="translate(3.082926, 2.425204) rotate(72.000000) translate(-3.082926, -2.425204) translate(1.101558, 0.675102)">
                                            <g  transform="translate(-0.000000, 0.000000)">
                                                <polygon  transform="translate(2.212633, 1.750102) rotate(18.000000) translate(-2.212633, -1.750102) " points="1.51818894 0.361213209 1.51818894 3.13899099 2.90707783 3.13899099"></polygon>
                                                <g  transform="translate(1.750102, 1.750102) scale(-1, 1) translate(-1.750102, -1.750102) translate(-0.000000, 0.000000)">
                                                    <polygon  transform="translate(1.750102, 1.750102) rotate(18.000000) translate(-1.750102, -1.750102) " points="1.05565765 0.361213209 1.05565765 3.13899099 2.44454654 3.13899099"></polygon>
                                                </g>
                                            </g>
                                        </g>
                                        <g  transform="translate(2.631644, 3.814105) rotate(144.000000) translate(-2.631644, -3.814105) translate(0.650277, 2.064003)">
                                            <g  transform="translate(0.000000, -0.000000)">
                                                <polygon  transform="translate(2.212633, 1.750102) rotate(18.000000) translate(-2.212633, -1.750102) " points="1.51818894 0.361213209 1.51818894 3.13899099 2.90707783 3.13899099"></polygon>
                                                <g  transform="translate(1.750102, 1.750102) scale(-1, 1) translate(-1.750102, -1.750102) ">
                                                    <polygon  transform="translate(1.750102, 1.750102) rotate(18.000000) translate(-1.750102, -1.750102) " points="1.05565765 0.361213209 1.05565765 3.13899099 2.44454654 3.13899099"></polygon>
                                                </g>
                                            </g>
                                        </g>
                                    </g>
                                </g>
                            </g>
                        </g>
                        <g  transform="translate(5.409054, 27.792137) rotate(72.000000) translate(-5.409054, -27.792137) translate(1.950862, 24.503201)">
                            <g  transform="translate(0.000000, -0.000000)">
                                <g  transform="translate(1.476824, 0.000000)">
                                    <polygon  transform="translate(2.212633, 1.750102) rotate(18.000000) translate(-2.212633, -1.750102) " points="1.51818894 0.361213209 1.51818894 3.13899099 2.90707783 3.13899099"></polygon>
                                    <g  transform="translate(1.750102, 1.750102) scale(-1, 1) translate(-1.750102, -1.750102) translate(-0.000000, 0.000000)">
                                        <polygon  transform="translate(1.750102, 1.750102) rotate(18.000000) translate(-1.750102, -1.750102) " points="1.05565765 0.361213209 1.05565765 3.13899099 2.44454654 3.13899099"></polygon>
                                    </g>
                                </g>
                                <g  transform="translate(1.556736, 0.183286)">
                                    <g  transform="translate(3.082926, 2.425204) rotate(72.000000) translate(-3.082926, -2.425204) translate(1.101558, 0.675102)">
                                        <g  transform="translate(0.000000, 0.000000)">
                                            <polygon  transform="translate(2.212633, 1.750102) rotate(18.000000) translate(-2.212633, -1.750102) " points="1.51818894 0.361213209 1.51818894 3.13899099 2.90707783 3.13899099"></polygon>
                                            <g  transform="translate(1.750102, 1.750102) scale(-1, 1) translate(-1.750102, -1.750102) translate(0.000000, -0.000000)">
                                                <polygon  transform="translate(1.750102, 1.750102) rotate(18.000000) translate(-1.750102, -1.750102) " points="1.05565765 0.361213209 1.05565765 3.13899099 2.44454654 3.13899099"></polygon>
                                            </g>
                                        </g>
                                    </g>
                                    <g  transform="translate(2.631644, 3.814105) rotate(144.000000) translate(-2.631644, -3.814105) translate(0.650277, 2.064003)">
                                        <polygon  transform="translate(2.212633, 1.750102) rotate(18.000000) translate(-2.212633, -1.750102) " points="1.51818894 0.361213209 1.51818894 3.13899099 2.90707783 3.13899099"></polygon>
                                        <g  transform="translate(1.750102, 1.750102) scale(-1, 1) translate(-1.750102, -1.750102) translate(-0.000000, 0.000000)">
                                            <polygon  transform="translate(1.750102, 1.750102) rotate(18.000000) translate(-1.750102, -1.750102) " points="1.05565765 0.361213209 1.05565765 3.13899099 2.44454654 3.13899099"></polygon>
                                        </g>
                                    </g>
                                </g>
                                <g  transform="translate(2.679824, 3.380579) scale(-1, 1) translate(-2.679824, -3.380579) translate(0.000000, 0.183286)">
                                    <g  transform="translate(-0.000000, -0.000000)">
                                        <g  transform="translate(3.082926, 2.425204) rotate(72.000000) translate(-3.082926, -2.425204) translate(1.101558, 0.675102)">
                                            <g  transform="translate(0.000000, -0.000000)">
                                                <polygon  transform="translate(2.212633, 1.750102) rotate(18.000000) translate(-2.212633, -1.750102) " points="1.51818894 0.361213209 1.51818894 3.13899099 2.90707783 3.13899099"></polygon>
                                                <g  transform="translate(1.750102, 1.750102) scale(-1, 1) translate(-1.750102, -1.750102) ">
                                                    <polygon  transform="translate(1.750102, 1.750102) rotate(18.000000) translate(-1.750102, -1.750102) " points="1.05565765 0.361213209 1.05565765 3.13899099 2.44454654 3.13899099"></polygon>
                                                </g>
                                            </g>
                                        </g>
                                        <g  transform="translate(2.631644, 3.814105) rotate(144.000000) translate(-2.631644, -3.814105) translate(0.650277, 2.064003)">
                                            <polygon  transform="translate(2.212633, 1.750102) rotate(18.000000) translate(-2.212633, -1.750102) " points="1.51818894 0.361213209 1.51818894 3.13899099 2.90707783 3.13899099"></polygon>
                                            <g  transform="translate(1.750102, 1.750102) scale(-1, 1) translate(-1.750102, -1.750102) translate(0.000000, 0.000000)">
                                                <polygon  transform="translate(1.750102, 1.750102) rotate(18.000000) translate(-1.750102, -1.750102) " points="1.05565765 0.361213209 1.05565765 3.13899099 2.44454654 3.13899099"></polygon>
                                            </g>
                                        </g>
                                    </g>
                                </g>
                            </g>
                        </g>
                        <g  transform="translate(11.509477, 33.892561) rotate(72.000000) translate(-11.509477, -33.892561) translate(8.051285, 30.603625)">
                            <g  transform="translate(-0.000000, 0.000000)">
                                <g  transform="translate(1.476824, 0.000000)">
                                    <polygon  transform="translate(2.212633, 1.750102) rotate(18.000000) translate(-2.212633, -1.750102) " points="1.51818894 0.361213209 1.51818894 3.13899099 2.90707783 3.13899099"></polygon>
                                    <g  transform="translate(1.750102, 1.750102) scale(-1, 1) translate(-1.750102, -1.750102) translate(-0.000000, 0.000000)">
                                        <polygon  transform="translate(1.750102, 1.750102) rotate(18.000000) translate(-1.750102, -1.750102) " points="1.05565765 0.361213209 1.05565765 3.13899099 2.44454654 3.13899099"></polygon>
                                    </g>
                                </g>
                                <g  transform="translate(1.556736, 0.183286)">
                                    <g  transform="translate(3.082926, 2.425204) rotate(72.000000) translate(-3.082926, -2.425204) translate(1.101558, 0.675102)">
                                        <g  transform="translate(0.000000, 0.000000)">
                                            <polygon  transform="translate(2.212633, 1.750102) rotate(18.000000) translate(-2.212633, -1.750102) " points="1.51818894 0.361213209 1.51818894 3.13899099 2.90707783 3.13899099"></polygon>
                                            <g  transform="translate(1.750102, 1.750102) scale(-1, 1) translate(-1.750102, -1.750102) translate(0.000000, 0.000000)">
                                                <polygon  transform="translate(1.750102, 1.750102) rotate(18.000000) translate(-1.750102, -1.750102) " points="1.05565765 0.361213209 1.05565765 3.13899099 2.44454654 3.13899099"></polygon>
                                            </g>
                                        </g>
                                    </g>
                                    <g  transform="translate(2.631644, 3.814105) rotate(144.000000) translate(-2.631644, -3.814105) translate(0.650277, 2.064003)">
                                        <g  transform="translate(-0.000000, 0.000000)">
                                            <polygon  transform="translate(2.212633, 1.750102) rotate(18.000000) translate(-2.212633, -1.750102) " points="1.51818894 0.361213209 1.51818894 3.13899099 2.90707783 3.13899099"></polygon>
                                            <g  transform="translate(1.750102, 1.750102) scale(-1, 1) translate(-1.750102, -1.750102) translate(0.000000, -0.000000)">
                                                <polygon  transform="translate(1.750102, 1.750102) rotate(18.000000) translate(-1.750102, -1.750102) " points="1.05565765 0.361213209 1.05565765 3.13899099 2.44454654 3.13899099"></polygon>
                                            </g>
                                        </g>
                                    </g>
                                </g>
                                <g  transform="translate(2.679824, 3.380579) scale(-1, 1) translate(-2.679824, -3.380579) translate(-0.000000, 0.183286)">
                                    <g  transform="translate(0.000000, -0.000000)">
                                        <g  transform="translate(3.082926, 2.425204) rotate(72.000000) translate(-3.082926, -2.425204) translate(1.101558, 0.675102)">
                                            <polygon  transform="translate(2.212633, 1.750102) rotate(18.000000) translate(-2.212633, -1.750102) " points="1.51818894 0.361213209 1.51818894 3.13899099 2.90707783 3.13899099"></polygon>
                                            <g  transform="translate(1.750102, 1.750102) scale(-1, 1) translate(-1.750102, -1.750102) ">
                                                <polygon  transform="translate(1.750102, 1.750102) rotate(18.000000) translate(-1.750102, -1.750102) " points="1.05565765 0.361213209 1.05565765 3.13899099 2.44454654 3.13899099"></polygon>
                                            </g>
                                        </g>
                                        <g  transform="translate(2.631644, 3.814105) rotate(144.000000) translate(-2.631644, -3.814105) translate(0.650277, 2.064003)">
                                            <g  transform="translate(0.000000, -0.000000)">
                                                <polygon  transform="translate(2.212633, 1.750102) rotate(18.000000) translate(-2.212633, -1.750102) " points="1.51818894 0.361213209 1.51818894 3.13899099 2.90707783 3.13899099"></polygon>
                                                <g  transform="translate(1.750102, 1.750102) scale(-1, 1) translate(-1.750102, -1.750102) ">
                                                    <polygon  transform="translate(1.750102, 1.750102) rotate(18.000000) translate(-1.750102, -1.750102) " points="1.05565765 0.361213209 1.05565765 3.13899099 2.44454654 3.13899099"></polygon>
                                                </g>
                                            </g>
                                        </g>
                                    </g>
                                </g>
                            </g>
                        </g>
                    </g>
                    <g  transform="translate(31.901335, 19.390796) scale(-1, 1) translate(-31.901335, -19.390796) translate(23.552952, 0.291879)">
                        <g  transform="translate(0.000000, 16.374788)">
                            <g  transform="translate(1.476824, 0.000000)">
                                <polygon  transform="translate(2.212633, 1.750102) rotate(18.000000) translate(-2.212633, -1.750102) " points="1.51818894 0.361213209 1.51818894 3.13899099 2.90707783 3.13899099"></polygon>
                                <g  transform="translate(1.750102, 1.750102) scale(-1, 1) translate(-1.750102, -1.750102) ">
                                    <polygon  transform="translate(1.750102, 1.750102) rotate(18.000000) translate(-1.750102, -1.750102) " points="1.05565765 0.361213209 1.05565765 3.13899099 2.44454654 3.13899099"></polygon>
                                </g>
                            </g>
                            <g  transform="translate(1.556736, 0.183286)">
                                <g  transform="translate(3.082926, 2.425204) rotate(72.000000) translate(-3.082926, -2.425204) translate(1.101558, 0.675102)">
                                    <polygon  transform="translate(2.212633, 1.750102) rotate(18.000000) translate(-2.212633, -1.750102) " points="1.51818894 0.361213209 1.51818894 3.13899099 2.90707783 3.13899099"></polygon>
                                    <g  transform="translate(1.750102, 1.750102) scale(-1, 1) translate(-1.750102, -1.750102) translate(0.000000, 0.000000)">
                                        <polygon  transform="translate(1.750102, 1.750102) rotate(18.000000) translate(-1.750102, -1.750102) " points="1.05565765 0.361213209 1.05565765 3.13899099 2.44454654 3.13899099"></polygon>
                                    </g>
                                </g>
                                <g  transform="translate(2.631644, 3.814105) rotate(144.000000) translate(-2.631644, -3.814105) translate(0.650277, 2.064003)">
                                    <polygon  transform="translate(2.212633, 1.750102) rotate(18.000000) translate(-2.212633, -1.750102) " points="1.51818894 0.361213209 1.51818894 3.13899099 2.90707783 3.13899099"></polygon>
                                    <g  transform="translate(1.750102, 1.750102) scale(-1, 1) translate(-1.750102, -1.750102) ">
                                        <polygon  transform="translate(1.750102, 1.750102) rotate(18.000000) translate(-1.750102, -1.750102) " points="1.05565765 0.361213209 1.05565765 3.13899099 2.44454654 3.13899099"></polygon>
                                    </g>
                                </g>
                            </g>
                            <g  transform="translate(2.679824, 3.380579) scale(-1, 1) translate(-2.679824, -3.380579) translate(0.000000, 0.183286)">
                                <g  transform="translate(3.082926, 2.425204) rotate(72.000000) translate(-3.082926, -2.425204) translate(1.101558, 0.675102)">
                                    <g  transform="translate(-0.000000, 0.000000)">
                                        <polygon  transform="translate(2.212633, 1.750102) rotate(18.000000) translate(-2.212633, -1.750102) " points="1.51818894 0.361213209 1.51818894 3.13899099 2.90707783 3.13899099"></polygon>
                                        <g  transform="translate(1.750102, 1.750102) scale(-1, 1) translate(-1.750102, -1.750102) translate(-0.000000, 0.000000)">
                                            <polygon  transform="translate(1.750102, 1.750102) rotate(18.000000) translate(-1.750102, -1.750102) " points="1.05565765 0.361213209 1.05565765 3.13899099 2.44454654 3.13899099"></polygon>
                                        </g>
                                    </g>
                                </g>
                                <g  transform="translate(2.631644, 3.814105) rotate(144.000000) translate(-2.631644, -3.814105) translate(0.650277, 2.064003)">
                                    <g  transform="translate(0.000000, 0.000000)">
                                        <polygon  transform="translate(2.212633, 1.750102) rotate(18.000000) translate(-2.212633, -1.750102) " points="1.51818894 0.361213209 1.51818894 3.13899099 2.90707783 3.13899099"></polygon>
                                        <g  transform="translate(1.750102, 1.750102) scale(-1, 1) translate(-1.750102, -1.750102) ">
                                            <polygon  transform="translate(1.750102, 1.750102) rotate(18.000000) translate(-1.750102, -1.750102) " points="1.05565765 0.361213209 1.05565765 3.13899099 2.44454654 3.13899099"></polygon>
                                        </g>
                                    </g>
                                </g>
                            </g>
                        </g>
                        <g  transform="translate(11.965841, 4.693479) rotate(-144.000000) translate(-11.965841, -4.693479) translate(8.507649, 1.404543)">
                            <g  transform="translate(0.000000, -0.000000)">
                                <g  transform="translate(1.476824, -0.000000)">
                                    <polygon  transform="translate(2.212633, 1.750102) rotate(18.000000) translate(-2.212633, -1.750102) " points="1.51818894 0.361213209 1.51818894 3.13899099 2.90707783 3.13899099"></polygon>
                                    <g  transform="translate(1.750102, 1.750102) scale(-1, 1) translate(-1.750102, -1.750102) translate(0.000000, -0.000000)">
                                        <polygon  transform="translate(1.750102, 1.750102) rotate(18.000000) translate(-1.750102, -1.750102) " points="1.05565765 0.361213209 1.05565765 3.13899099 2.44454654 3.13899099"></polygon>
                                    </g>
                                </g>
                                <g  transform="translate(1.556736, 0.183286)">
                                    <g  transform="translate(3.082926, 2.425204) rotate(72.000000) translate(-3.082926, -2.425204) translate(1.101558, 0.675102)">
                                        <g  transform="translate(0.000000, 0.000000)">
                                            <polygon  transform="translate(2.212633, 1.750102) rotate(18.000000) translate(-2.212633, -1.750102) " points="1.51818894 0.361213209 1.51818894 3.13899099 2.90707783 3.13899099"></polygon>
                                            <g  transform="translate(1.750102, 1.750102) scale(-1, 1) translate(-1.750102, -1.750102) translate(-0.000000, 0.000000)">
                                                <polygon  transform="translate(1.750102, 1.750102) rotate(18.000000) translate(-1.750102, -1.750102) " points="1.05565765 0.361213209 1.05565765 3.13899099 2.44454654 3.13899099"></polygon>
                                            </g>
                                        </g>
                                    </g>
                                    <g  transform="translate(2.631644, 3.814105) rotate(144.000000) translate(-2.631644, -3.814105) translate(0.650277, 2.064003)">
                                        <g  transform="translate(0.000000, -0.000000)">
                                            <polygon  transform="translate(2.212633, 1.750102) rotate(18.000000) translate(-2.212633, -1.750102) " points="1.51818894 0.361213209 1.51818894 3.13899099 2.90707783 3.13899099"></polygon>
                                            <g  transform="translate(1.750102, 1.750102) scale(-1, 1) translate(-1.750102, -1.750102) ">
                                                <polygon  transform="translate(1.750102, 1.750102) rotate(18.000000) translate(-1.750102, -1.750102) " points="1.05565765 0.361213209 1.05565765 3.13899099 2.44454654 3.13899099"></polygon>
                                            </g>
                                        </g>
                                    </g>
                                </g>
                                <g  transform="translate(2.679824, 3.380579) scale(-1, 1) translate(-2.679824, -3.380579) translate(0.000000, 0.183286)">
                                    <g  transform="translate(0.000000, -0.000000)">
                                        <g  transform="translate(3.082926, 2.425204) rotate(72.000000) translate(-3.082926, -2.425204) translate(1.101558, 0.675102)">
                                            <g  transform="translate(0.000000, 0.000000)">
                                                <polygon  transform="translate(2.212633, 1.750102) rotate(18.000000) translate(-2.212633, -1.750102) " points="1.51818894 0.361213209 1.51818894 3.13899099 2.90707783 3.13899099"></polygon>
                                                <g  transform="translate(1.750102, 1.750102) scale(-1, 1) translate(-1.750102, -1.750102) ">
                                                    <polygon  transform="translate(1.750102, 1.750102) rotate(18.000000) translate(-1.750102, -1.750102) " points="1.05565765 0.361213209 1.05565765 3.13899099 2.44454654 3.13899099"></polygon>
                                                </g>
                                            </g>
                                        </g>
                                        <g  transform="translate(2.631644, 3.814105) rotate(144.000000) translate(-2.631644, -3.814105) translate(0.650277, 2.064003)">
                                            <g  transform="translate(0.000000, 0.000000)">
                                                <polygon  transform="translate(2.212633, 1.750102) rotate(18.000000) translate(-2.212633, -1.750102) " points="1.51818894 0.361213209 1.51818894 3.13899099 2.90707783 3.13899099"></polygon>
                                                <g  transform="translate(1.750102, 1.750102) scale(-1, 1) translate(-1.750102, -1.750102) translate(0.000000, -0.000000)">
                                                    <polygon  transform="translate(1.750102, 1.750102) rotate(18.000000) translate(-1.750102, -1.750102) " points="1.05565765 0.361213209 1.05565765 3.13899099 2.44454654 3.13899099"></polygon>
                                                </g>
                                            </g>
                                        </g>
                                    </g>
                                </g>
                            </g>
                        </g>
                        <g  transform="translate(5.516787, 10.793903) rotate(144.000000) translate(-5.516787, -10.793903) translate(2.058594, 7.504967)">
                            <g  transform="translate(0.000000, 0.000000)">
                                <g  transform="translate(1.476824, 0.000000)">
                                    <polygon  transform="translate(2.212633, 1.750102) rotate(18.000000) translate(-2.212633, -1.750102) " points="1.51818894 0.361213209 1.51818894 3.13899099 2.90707783 3.13899099"></polygon>
                                    <g  transform="translate(1.750102, 1.750102) scale(-1, 1) translate(-1.750102, -1.750102) ">
                                        <polygon  transform="translate(1.750102, 1.750102) rotate(18.000000) translate(-1.750102, -1.750102) " points="1.05565765 0.361213209 1.05565765 3.13899099 2.44454654 3.13899099"></polygon>
                                    </g>
                                </g>
                                <g  transform="translate(1.556736, 0.183286)">
                                    <g  transform="translate(3.082926, 2.425204) rotate(72.000000) translate(-3.082926, -2.425204) translate(1.101558, 0.675102)">
                                        <g  transform="translate(-0.000000, 0.000000)">
                                            <polygon  transform="translate(2.212633, 1.750102) rotate(18.000000) translate(-2.212633, -1.750102) " points="1.51818894 0.361213209 1.51818894 3.13899099 2.90707783 3.13899099"></polygon>
                                            <g  transform="translate(1.750102, 1.750102) scale(-1, 1) translate(-1.750102, -1.750102) ">
                                                <polygon  transform="translate(1.750102, 1.750102) rotate(18.000000) translate(-1.750102, -1.750102) " points="1.05565765 0.361213209 1.05565765 3.13899099 2.44454654 3.13899099"></polygon>
                                            </g>
                                        </g>
                                    </g>
                                    <g  transform="translate(2.631644, 3.814105) rotate(144.000000) translate(-2.631644, -3.814105) translate(0.650277, 2.064003)">
                                        <g  transform="translate(-0.000000, 0.000000)">
                                            <polygon  transform="translate(2.212633, 1.750102) rotate(18.000000) translate(-2.212633, -1.750102) " points="1.51818894 0.361213209 1.51818894 3.13899099 2.90707783 3.13899099"></polygon>
                                            <g  transform="translate(1.750102, 1.750102) scale(-1, 1) translate(-1.750102, -1.750102) translate(-0.000000, 0.000000)">
                                                <polygon  transform="translate(1.750102, 1.750102) rotate(18.000000) translate(-1.750102, -1.750102) " points="1.05565765 0.361213209 1.05565765 3.13899099 2.44454654 3.13899099"></polygon>
                                            </g>
                                        </g>
                                    </g>
                                </g>
                                <g  transform="translate(2.679824, 3.380579) scale(-1, 1) translate(-2.679824, -3.380579) translate(0.000000, 0.183286)">
                                    <g  transform="translate(0.000000, -0.000000)">
                                        <g  transform="translate(3.082926, 2.425204) rotate(72.000000) translate(-3.082926, -2.425204) translate(1.101558, 0.675102)">
                                            <g  transform="translate(0.000000, -0.000000)">
                                                <polygon  transform="translate(2.212633, 1.750102) rotate(18.000000) translate(-2.212633, -1.750102) " points="1.51818894 0.361213209 1.51818894 3.13899099 2.90707783 3.13899099"></polygon>
                                                <g  transform="translate(1.750102, 1.750102) scale(-1, 1) translate(-1.750102, -1.750102) translate(0.000000, 0.000000)">
                                                    <polygon  transform="translate(1.750102, 1.750102) rotate(18.000000) translate(-1.750102, -1.750102) " points="1.05565765 0.361213209 1.05565765 3.13899099 2.44454654 3.13899099"></polygon>
                                                </g>
                                            </g>
                                        </g>
                                        <g  transform="translate(2.631644, 3.814105) rotate(144.000000) translate(-2.631644, -3.814105) translate(0.650277, 2.064003)">
                                            <polygon  transform="translate(2.212633, 1.750102) rotate(18.000000) translate(-2.212633, -1.750102) " points="1.51818894 0.361213209 1.51818894 3.13899099 2.90707783 3.13899099"></polygon>
                                            <g  transform="translate(1.750102, 1.750102) scale(-1, 1) translate(-1.750102, -1.750102) ">
                                                <polygon  transform="translate(1.750102, 1.750102) rotate(18.000000) translate(-1.750102, -1.750102) " points="1.05565765 0.361213209 1.05565765 3.13899099 2.44454654 3.13899099"></polygon>
                                            </g>
                                        </g>
                                    </g>
                                </g>
                            </g>
                        </g>
                        <g  transform="translate(5.409054, 27.792137) rotate(72.000000) translate(-5.409054, -27.792137) translate(1.950862, 24.503201)">
                            <g  transform="translate(1.476824, 0.000000)">
                                <polygon  transform="translate(2.212633, 1.750102) rotate(18.000000) translate(-2.212633, -1.750102) " points="1.51818894 0.361213209 1.51818894 3.13899099 2.90707783 3.13899099"></polygon>
                                <g  transform="translate(1.750102, 1.750102) scale(-1, 1) translate(-1.750102, -1.750102) translate(0.000000, 0.000000)">
                                    <polygon  transform="translate(1.750102, 1.750102) rotate(18.000000) translate(-1.750102, -1.750102) " points="1.05565765 0.361213209 1.05565765 3.13899099 2.44454654 3.13899099"></polygon>
                                </g>
                            </g>
                            <g  transform="translate(1.556736, 0.183286)">
                                <g  transform="translate(3.082926, 2.425204) rotate(72.000000) translate(-3.082926, -2.425204) translate(1.101558, 0.675102)">
                                    <polygon  transform="translate(2.212633, 1.750102) rotate(18.000000) translate(-2.212633, -1.750102) " points="1.51818894 0.361213209 1.51818894 3.13899099 2.90707783 3.13899099"></polygon>
                                    <g  transform="translate(1.750102, 1.750102) scale(-1, 1) translate(-1.750102, -1.750102) translate(0.000000, 0.000000)">
                                        <polygon  transform="translate(1.750102, 1.750102) rotate(18.000000) translate(-1.750102, -1.750102) " points="1.05565765 0.361213209 1.05565765 3.13899099 2.44454654 3.13899099"></polygon>
                                    </g>
                                </g>
                                <g  transform="translate(2.631644, 3.814105) rotate(144.000000) translate(-2.631644, -3.814105) translate(0.650277, 2.064003)">
                                    <polygon  transform="translate(2.212633, 1.750102) rotate(18.000000) translate(-2.212633, -1.750102) " points="1.51818894 0.361213209 1.51818894 3.13899099 2.90707783 3.13899099"></polygon>
                                    <g  transform="translate(1.750102, 1.750102) scale(-1, 1) translate(-1.750102, -1.750102) ">
                                        <polygon  transform="translate(1.750102, 1.750102) rotate(18.000000) translate(-1.750102, -1.750102) " points="1.05565765 0.361213209 1.05565765 3.13899099 2.44454654 3.13899099"></polygon>
                                    </g>
                                </g>
                            </g>
                            <g  transform="translate(2.679824, 3.380579) scale(-1, 1) translate(-2.679824, -3.380579) translate(0.000000, 0.183286)">
                                <g  transform="translate(0.000000, 0.000000)">
                                    <g  transform="translate(3.082926, 2.425204) rotate(72.000000) translate(-3.082926, -2.425204) translate(1.101558, 0.675102)">
                                        <g  transform="translate(0.000000, 0.000000)">
                                            <polygon  transform="translate(2.212633, 1.750102) rotate(18.000000) translate(-2.212633, -1.750102) " points="1.51818894 0.361213209 1.51818894 3.13899099 2.90707783 3.13899099"></polygon>
                                            <g  transform="translate(1.750102, 1.750102) scale(-1, 1) translate(-1.750102, -1.750102) ">
                                                <polygon  transform="translate(1.750102, 1.750102) rotate(18.000000) translate(-1.750102, -1.750102) " points="1.05565765 0.361213209 1.05565765 3.13899099 2.44454654 3.13899099"></polygon>
                                            </g>
                                        </g>
                                    </g>
                                    <g  transform="translate(2.631644, 3.814105) rotate(144.000000) translate(-2.631644, -3.814105) translate(0.650277, 2.064003)">
                                        <g  transform="translate(0.000000, 0.000000)">
                                            <polygon  transform="translate(2.212633, 1.750102) rotate(18.000000) translate(-2.212633, -1.750102) " points="1.51818894 0.361213209 1.51818894 3.13899099 2.90707783 3.13899099"></polygon>
                                            <g  transform="translate(1.750102, 1.750102) scale(-1, 1) translate(-1.750102, -1.750102) translate(-0.000000, 0.000000)">
                                                <polygon  transform="translate(1.750102, 1.750102) rotate(18.000000) translate(-1.750102, -1.750102) " points="1.05565765 0.361213209 1.05565765 3.13899099 2.44454654 3.13899099"></polygon>
                                            </g>
                                        </g>
                                    </g>
                                </g>
                            </g>
                        </g>
                        <g  transform="translate(11.509477, 33.892561) rotate(72.000000) translate(-11.509477, -33.892561) translate(8.051285, 30.603625)">
                            <g  transform="translate(0.000000, 0.000000)">
                                <g  transform="translate(1.476824, 0.000000)">
                                    <polygon  transform="translate(2.212633, 1.750102) rotate(18.000000) translate(-2.212633, -1.750102) " points="1.51818894 0.361213209 1.51818894 3.13899099 2.90707783 3.13899099"></polygon>
                                    <g  transform="translate(1.750102, 1.750102) scale(-1, 1) translate(-1.750102, -1.750102) translate(0.000000, 0.000000)">
                                        <polygon  transform="translate(1.750102, 1.750102) rotate(18.000000) translate(-1.750102, -1.750102) " points="1.05565765 0.361213209 1.05565765 3.13899099 2.44454654 3.13899099"></polygon>
                                    </g>
                                </g>
                                <g  transform="translate(1.556736, 0.183286)">
                                    <g  transform="translate(3.082926, 2.425204) rotate(72.000000) translate(-3.082926, -2.425204) translate(1.101558, 0.675102)">
                                        <g  transform="translate(0.000000, 0.000000)">
                                            <polygon  transform="translate(2.212633, 1.750102) rotate(18.000000) translate(-2.212633, -1.750102) " points="1.51818894 0.361213209 1.51818894 3.13899099 2.90707783 3.13899099"></polygon>
                                            <g  transform="translate(1.750102, 1.750102) scale(-1, 1) translate(-1.750102, -1.750102) translate(0.000000, 0.000000)">
                                                <polygon  transform="translate(1.750102, 1.750102) rotate(18.000000) translate(-1.750102, -1.750102) " points="1.05565765 0.361213209 1.05565765 3.13899099 2.44454654 3.13899099"></polygon>
                                            </g>
                                        </g>
                                    </g>
                                    <g  transform="translate(2.631644, 3.814105) rotate(144.000000) translate(-2.631644, -3.814105) translate(0.650277, 2.064003)">
                                        <g  transform="translate(-0.000000, 0.000000)">
                                            <polygon  transform="translate(2.212633, 1.750102) rotate(18.000000) translate(-2.212633, -1.750102) " points="1.51818894 0.361213209 1.51818894 3.13899099 2.90707783 3.13899099"></polygon>
                                            <g  transform="translate(1.750102, 1.750102) scale(-1, 1) translate(-1.750102, -1.750102) ">
                                                <polygon  transform="translate(1.750102, 1.750102) rotate(18.000000) translate(-1.750102, -1.750102) " points="1.05565765 0.361213209 1.05565765 3.13899099 2.44454654 3.13899099"></polygon>
                                            </g>
                                        </g>
                                    </g>
                                </g>
                                <g  transform="translate(2.679824, 3.380579) scale(-1, 1) translate(-2.679824, -3.380579) translate(0.000000, 0.183286)">
                                    <g  transform="translate(0.000000, -0.000000)">
                                        <g  transform="translate(3.082926, 2.425204) rotate(72.000000) translate(-3.082926, -2.425204) translate(1.101558, 0.675102)">
                                            <g  transform="translate(0.000000, -0.000000)">
                                                <polygon  transform="translate(2.212633, 1.750102) rotate(18.000000) translate(-2.212633, -1.750102) " points="1.51818894 0.361213209 1.51818894 3.13899099 2.90707783 3.13899099"></polygon>
                                                <g  transform="translate(1.750102, 1.750102) scale(-1, 1) translate(-1.750102, -1.750102) ">
                                                    <polygon  transform="translate(1.750102, 1.750102) rotate(18.000000) translate(-1.750102, -1.750102) " points="1.05565765 0.361213209 1.05565765 3.13899099 2.44454654 3.13899099"></polygon>
                                                </g>
                                            </g>
                                        </g>
                                        <g  transform="translate(2.631644, 3.814105) rotate(144.000000) translate(-2.631644, -3.814105) translate(0.650277, 2.064003)">
                                            <g  transform="translate(0.000000, 0.000000)">
                                                <polygon  transform="translate(2.212633, 1.750102) rotate(18.000000) translate(-2.212633, -1.750102) " points="1.51818894 0.361213209 1.51818894 3.13899099 2.90707783 3.13899099"></polygon>
                                                <g  transform="translate(1.750102, 1.750102) scale(-1, 1) translate(-1.750102, -1.750102) translate(-0.000000, 0.000000)">
                                                    <polygon  transform="translate(1.750102, 1.750102) rotate(18.000000) translate(-1.750102, -1.750102) " points="1.05565765 0.361213209 1.05565765 3.13899099 2.44454654 3.13899099"></polygon>
                                                </g>
                                            </g>
                                        </g>
                                    </g>
                                </g>
                            </g>
                        </g>
                    </g>
                </g>
            </g>
        </g>
    </g>
</svg>