
<svg width="545px" height="358px" viewBox="0 0 545 358" version="1.1" xmlns="http://www.w3.org/2000/svg" xmlns:xlink="http://www.w3.org/1999/xlink">
    <g  stroke="none" stroke-width="1" fill="none" fill-rule="evenodd">
        <g  transform="translate(-795.000000, -1237.000000)">
            <g  transform="translate(795.000000, 1237.000000)">
                <rect  fill="#FFFFFF" x="0" y="0" width="545" height="358" rx="30"></rect>
                <text  font-family="Manrope-Bold, Manrope, -apple-system, BlinkMacSystemFont, Segoe UI, Roboto, Helvetica, Arial, sans-serif" font-size="24" font-weight="bold" fill="#0B0B0B">
                    <tspan x="20" y="61">Omas Vogelhaus</tspan>
                </text>
                <text  font-family="Manrope-Medium, Manrope, -apple-system, BlinkMacSystemFont, Segoe UI, Roboto, Helvetica, Arial, sans-serif" font-size="20" font-weight="400" fill="#7E7E7E">
                    <tspan x="20" y="119">Keine Beschreibung</tspan>
                </text>
                <text  font-family="Manrope-Medium, Manrope, -apple-system, BlinkMacSystemFont, Segoe UI, Roboto, Helvetica, Arial, sans-serif" font-size="18" font-weight="400" fill="#0B0B0B">
                    <tspan x="20" y="164">Gäste</tspan>
                </text>
                <text  font-family="Manrope-Medium, Manrope, -apple-system, BlinkMacSystemFont, Segoe UI, Roboto, Helvetica, Arial, sans-serif" font-size="18" font-weight="400" fill="#0B0B0B">
                    <tspan x="20" y="203">Passwortgeschützt</tspan>
                </text>
                <text  font-family="Manrope-Medium, Manrope, -apple-system, BlinkMacSystemFont, Segoe UI, Roboto, Helvetica, Arial, sans-serif" font-size="18" font-weight="400" fill="#0B0B0B">
                    <tspan x="303" y="129">Bitte scanne den QR Code </tspan>
                    <tspan x="303" y="153">um dem Stream zu folgen.</tspan>
                </text>
                <text  font-family="Manrope-Medium, Manrope, -apple-system, BlinkMacSystemFont, Segoe UI, Roboto, Helvetica, Arial, sans-serif" font-size="18" font-weight="400" fill="#0B0B0B">
                    <tspan x="235" y="164">6</tspan>
                </text>
                <text  font-family="Manrope-Medium, Manrope, -apple-system, BlinkMacSystemFont, Segoe UI, Roboto, Helvetica, Arial, sans-serif" font-size="18" font-weight="400" fill="#0B0B0B">
                    <tspan x="228" y="203">Ja</tspan>
                </text>
                <rect  fill="#F1F1F1" x="303" y="40" width="222" height="55" rx="13"></rect>
                <rect  fill="#006DFF" x="308" y="45" width="106" height="45" rx="10"></rect>
                <text  font-family="Manrope-Medium, Manrope, -apple-system, BlinkMacSystemFont, Segoe UI, Roboto, Helvetica, Arial, sans-serif" font-size="18" font-weight="400" fill="#0B0B0B">
                    <tspan x="452" y="75">Link</tspan>
                </text>
                <text  font-family="Manrope-Medium, Manrope, -apple-system, BlinkMacSystemFont, Segoe UI, Roboto, Helvetica, Arial, sans-serif" font-size="18" font-weight="400" fill="#FFFFFF">
                    <tspan x="349" y="75">QR</tspan>
                </text>
                <g  transform="translate(344.000000, 183.000000)" fill-rule="nonzero">
                    <rect  fill="#FFFFFF" x="0" y="0" width="140" height="140"></rect>
                    <rect  fill="#000000" x="5" y="5" width="36" height="5"></rect>
                    <rect  fill="#000000" x="46" y="5" width="16" height="10"></rect>
                    <rect  fill="#000000" x="67" y="5" width="26" height="5"></rect>
                    <rect  fill="#000000" x="99" y="5" width="36" height="5"></rect>
                    <rect  fill="#000000" x="5" y="10" width="5" height="31"></rect>
                    <rect  fill="#000000" x="36" y="10" width="5" height="31"></rect>
                    <rect  fill="#000000" x="73" y="10" width="10" height="5"></rect>
                    <rect  fill="#000000" x="88" y="11" width="5" height="36"></rect>
                    <rect  fill="#000000" x="99" y="10" width="5" height="31"></rect>
                    <rect  fill="#000000" x="130" y="10" width="5" height="31"></rect>
                    <rect  fill="#000000" x="15" y="15" width="16" height="16"></rect>
                    <rect  fill="#000000" x="47" y="16" width="5" height="10"></rect>
                    <rect  fill="#000000" x="57" y="16" width="10" height="5"></rect>
                    <rect  fill="#000000" x="78" y="16" width="5" height="10"></rect>
                    <rect  fill="#000000" x="109" y="15" width="16" height="16"></rect>
                    <rect  fill="#000000" x="52" y="21" width="5" height="5"></rect>
                    <rect  fill="#000000" x="62" y="21" width="5" height="5"></rect>
                    <rect  fill="#000000" x="73" y="21" width="5" height="16"></rect>
                    <rect  fill="#000000" x="83" y="21" width="5" height="10"></rect>
                    <rect  fill="#000000" x="47" y="31" width="5" height="10"></rect>
                    <rect  fill="#000000" x="62" y="31" width="10" height="5"></rect>
                    <rect  fill="#000000" x="10" y="36" width="26" height="5"></rect>
                    <rect  fill="#000000" x="57" y="36" width="5" height="5"></rect>
                    <rect  fill="#000000" x="68" y="36" width="5" height="10"></rect>
                    <rect  fill="#000000" x="78" y="36" width="5" height="5"></rect>
                    <rect  fill="#000000" x="104" y="36" width="26" height="5"></rect>
                    <rect  fill="#000000" x="52" y="42" width="5" height="5"></rect>
                    <rect  fill="#000000" x="83" y="41" width="5" height="47"></rect>
                    <rect  fill="#000000" x="5" y="47" width="10" height="5"></rect>
                    <rect  fill="#000000" x="26" y="47" width="16" height="5"></rect>
                    <rect  fill="#000000" x="62" y="47" width="5" height="5"></rect>
                    <rect  fill="#000000" x="104" y="47" width="5" height="5"></rect>
                    <rect  fill="#000000" x="114" y="47" width="21" height="5"></rect>
                    <rect  fill="#000000" x="5" y="52" width="5" height="16"></rect>
                    <rect  fill="#000000" x="41" y="52" width="21" height="5"></rect>
                    <rect  fill="#000000" x="68" y="52" width="5" height="10"></rect>
                    <rect  fill="#000000" x="78" y="52" width="5" height="5"></rect>
                    <rect  fill="#000000" x="88" y="52" width="5" height="10"></rect>
                    <rect  fill="#000000" x="109" y="52" width="5" height="16"></rect>
                    <rect  fill="#000000" x="119" y="52" width="5" height="5"></rect>
                    <rect  fill="#000000" x="11" y="57" width="10" height="5"></rect>
                    <rect  fill="#000000" x="26" y="57" width="26" height="5"></rect>
                    <rect  fill="#000000" x="62" y="57" width="5" height="10"></rect>
                    <rect  fill="#000000" x="93" y="57" width="5" height="10"></rect>
                    <rect  fill="#000000" x="104" y="57" width="5" height="16"></rect>
                    <rect  fill="#000000" x="21" y="62" width="10" height="5"></rect>
                    <rect  fill="#000000" x="47" y="62" width="5" height="5"></rect>
                    <rect  fill="#000000" x="57" y="62" width="5" height="10"></rect>
                    <rect  fill="#000000" x="78" y="62" width="5" height="5"></rect>
                    <rect  fill="#000000" x="99" y="62" width="5" height="10"></rect>
                    <rect  fill="#000000" x="119" y="62" width="5" height="36"></rect>
                    <rect  fill="#000000" x="10" y="68" width="5" height="10"></rect>
                    <rect  fill="#000000" x="26" y="68" width="16" height="5"></rect>
                    <rect  fill="#000000" x="68" y="68" width="5" height="5"></rect>
                    <rect  fill="#000000" x="130" y="68" width="5" height="5"></rect>
                    <rect  fill="#000000" x="5" y="73" width="5" height="5"></rect>
                    <rect  fill="#000000" x="21" y="73" width="5" height="5"></rect>
                    <rect  fill="#000000" x="42" y="73" width="10" height="10"></rect>
                    <rect  fill="#000000" x="78" y="72" width="5" height="16"></rect>
                    <rect  fill="#000000" x="88" y="73" width="5" height="41"></rect>
                    <rect  fill="#000000" x="109" y="73" width="5" height="41"></rect>
                    <rect  fill="#000000" x="36" y="78" width="5" height="5"></rect>
                    <rect  fill="#000000" x="57" y="78" width="5" height="5"></rect>
                    <rect  fill="#000000" x="73" y="78" width="5" height="5"></rect>
                    <rect  fill="#000000" x="93" y="78" width="5" height="16"></rect>
                    <rect  fill="#000000" x="26" y="83" width="5" height="10"></rect>
                    <rect  fill="#000000" x="52" y="83" width="5" height="21"></rect>
                    <rect  fill="#000000" x="68" y="83" width="5" height="5"></rect>
                    <rect  fill="#000000" x="125" y="83" width="5" height="16"></rect>
                    <rect  fill="#000000" x="5" y="88" width="16" height="5"></rect>
                    <rect  fill="#000000" x="36" y="88" width="16" height="5"></rect>
                    <rect  fill="#000000" x="57" y="88" width="10" height="5"></rect>
                    <rect  fill="#000000" x="99" y="88" width="10" height="5"></rect>
                    <rect  fill="#000000" x="130" y="88" width="5" height="5"></rect>
                    <rect  fill="#000000" x="47" y="93" width="5" height="5"></rect>
                    <rect  fill="#000000" x="68" y="94" width="5" height="10"></rect>
                    <rect  fill="#000000" x="78" y="93" width="10" height="5"></rect>
                    <rect  fill="#000000" x="114" y="94" width="5" height="10"></rect>
                    <rect  fill="#000000" x="5" y="99" width="36" height="5"></rect>
                    <rect  fill="#000000" x="62" y="99" width="5" height="10"></rect>
                    <rect  fill="#000000" x="73" y="99" width="10" height="5"></rect>
                    <rect  fill="#000000" x="99" y="99" width="5" height="5"></rect>
                    <rect  fill="#000000" x="5" y="104" width="5" height="31"></rect>
                    <rect  fill="#000000" x="36" y="104" width="5" height="31"></rect>
                    <rect  fill="#000000" x="47" y="104" width="5" height="10"></rect>
                    <rect  fill="#000000" x="57" y="104" width="5" height="10"></rect>
                    <rect  fill="#000000" x="119" y="104" width="5" height="10"></rect>
                    <rect  fill="#000000" x="130" y="103" width="5" height="16"></rect>
                    <rect  fill="#000000" x="15" y="109" width="16" height="16"></rect>
                    <rect  fill="#000000" x="52" y="109" width="5" height="5"></rect>
                    <rect  fill="#000000" x="68" y="109" width="5" height="5"></rect>
                    <rect  fill="#000000" x="93" y="109" width="16" height="16"></rect>
                    <rect  fill="#000000" x="125" y="109" width="5" height="26"></rect>
                    <rect  fill="#000000" x="73" y="114" width="5" height="10"></rect>
                    <rect  fill="#000000" x="114" y="114" width="5" height="5"></rect>
                    <rect  fill="#000000" x="57" y="119" width="5" height="10"></rect>
                    <rect  fill="#000000" x="83" y="119" width="10" height="5"></rect>
                    <rect  fill="#000000" x="47" y="125" width="10" height="5"></rect>
                    <rect  fill="#000000" x="68" y="125" width="5" height="10"></rect>
                    <rect  fill="#000000" x="78" y="125" width="5" height="10"></rect>
                    <rect  fill="#000000" x="93" y="125" width="5" height="10"></rect>
                    <rect  fill="#000000" x="114" y="125" width="10" height="5"></rect>
                    <rect  fill="#000000" x="10" y="130" width="26" height="5"></rect>
                    <rect  fill="#000000" x="47" y="130" width="5" height="5"></rect>
                    <rect  fill="#000000" x="62" y="130" width="5" height="5"></rect>
                    <rect  fill="#000000" x="73" y="130" width="5" height="5"></rect>
                    <rect  fill="#000000" x="83" y="130" width="5" height="5"></rect>
                    <rect  fill="#000000" x="98" y="130" width="16" height="5"></rect>
                    <rect  fill="#000000" x="119" y="130" width="5" height="5"></rect>
                    <rect  fill="#000000" x="130" y="130" width="5" height="5"></rect>
                </g>
            </g>
        </g>
    </g>
</svg>