<svg width="36px" height="26px" viewBox="0 0 36 26" version="1.1" xmlns="http://www.w3.org/2000/svg" xmlns:xlink="http://www.w3.org/1999/xlink">
    <g stroke="none" stroke-width="1" fill="none" fill-rule="evenodd">
        <g transform="translate(-1179.000000, -67.000000)" fill-rule="nonzero">
            <g transform="translate(1179.000000, 67.000000)">
                <path d="M0,4.059 L0,8 L5.628,8 L0,4.059 Z M4.664,26 L13,26 L13,20.163 L4.664,26 Z M23,20.164 L23,26 L31.335,26 L23,20.164 Z M0,18 L0,21.941 L5.63,18 L0,18 Z M31.337,0 L23,0 L23,5.837 L31.337,0 Z M36,21.942 L36,18 L30.369,18 L36,21.942 Z M36,8 L36,4.059 L30.371,8 L36,8 Z M13,0 L4.664,0 L13,5.837 L13,0 Z" fill="#00247D"></path>
                <path d="M25.14,18 L34.852,24.801 C35.323,24.322 35.66,23.719 35.842,23.052 L28.627,18 L25.14,18 Z M13,18 L10.859,18 L1.148,24.8 C1.669,25.33 2.337,25.709 3.086,25.885 L13,18.943 L13,18 Z M23,8 L25.141,8 L34.852,1.2 C34.331,0.67 33.664,0.291 32.915,0.115 L23,7.057 L23,8 Z M10.859,8 L1.148,1.2 C0.677,1.68 0.34,2.282 0.157,2.949 L7.372,8 L10.859,8 Z" fill="#CF1B2B"></path>
                <path d="M36,16 L21,16 L21,26 L23,26 L23,20.164 L31.335,26 L32,26 C33.117,26 34.126,25.539 34.852,24.801 L25.14,18 L28.627,18 L35.842,23.052 C35.935,22.715 36,22.366 36,22 L36,21.942 L30.369,18 L36,18 L36,16 Z M0,16 L0,18 L5.63,18 L0,21.941 L0,22 C0,23.091 0.439,24.078 1.148,24.8 L10.859,18 L13,18 L13,18.943 L3.086,25.884 C3.38,25.954 3.684,26 4,26 L4.664,26 L13,20.163 L13,26 L15,26 L15,16 L0,16 Z M36,4 C36,2.909 35.561,1.922 34.852,1.2 L25.141,8 L23,8 L23,7.057 L32.915,0.115 C32.62,0.046 32.316,0 32,0 L31.337,0 L23,5.837 L23,0 L21,0 L21,10 L36,10 L36,8 L30.371,8 L36,4.059 L36,4 Z M13,0 L13,5.837 L4.664,0 L4,0 C2.882,0 1.874,0.461 1.148,1.2 L10.859,8 L7.372,8 L0.157,2.949 C0.065,3.286 0,3.634 0,4 L0,4.059 L5.628,8 L0,8 L0,10 L15,10 L15,0 L13,0 Z" fill="#EEEEEE"></path>
                <polygon fill="#CF1B2B" points="21 10 21 0 15 0 15 10 0 10 0 16 15 16 15 26 21 26 21 16 36 16 36 10"></polygon>
            </g>
        </g>
    </g>
</svg>