<svg width="35px" height="35px" viewBox="0 0 35 35" version="1.1" xmlns="http://www.w3.org/2000/svg" xmlns:xlink="http://www.w3.org/1999/xlink">
    <g  stroke="none" stroke-width="1" fill="none" fill-rule="evenodd">
        <g  transform="translate(-1355.000000, -63.000000)" fill="#161514">
            <g  transform="translate(1355.000000, 63.000000)">
                <path d="M17.5001449,0 C7.83634858,0 0,8.03319093 0,17.9430513 C0,25.8707612 5.01432416,32.5965827 11.9676671,34.9691611 C12.8422687,35.1352565 13.1633616,34.5799216 13.1633616,34.1060002 C13.1633616,33.6781338 13.1471331,32.2646892 13.1395984,30.7653741 C8.27104119,31.8507879 7.24371766,28.648327 7.24371766,28.648327 C6.44765059,26.5743637 5.30064169,26.0228915 5.30064169,26.0228915 C3.71285448,24.9092504 5.42032705,24.9321294 5.42032705,24.9321294 C7.17764438,25.0587065 8.10296005,26.7811658 8.10296005,26.7811658 C9.66379632,29.5242646 12.1968951,28.7312261 13.1955289,28.2727555 C13.3525978,27.1130593 13.8061271,26.3215066 14.3066032,25.8734354 C10.4195819,25.4197188 6.33347133,23.8811827 6.33347133,17.0059051 C6.33347133,15.0469308 7.01709791,13.4462947 8.13657628,12.1897343 C7.95487477,11.7378005 7.35586835,9.91283162 8.3061064,7.44130913 C8.3061064,7.44130913 9.77565721,6.95906808 13.1198924,9.28054022 C14.5158352,8.88298106 16.0129166,8.68360722 17.5001449,8.67677325 C18.9873732,8.68360722 20.4856137,8.88298106 21.8841648,9.28054022 C25.2243428,6.95906808 26.691865,7.44130913 26.691865,7.44130913 C27.6444214,9.91283162 27.0451252,11.7378005 26.8634237,12.1897343 C27.9855102,13.4462947 28.6645001,15.0469308 28.6645001,17.0059051 C28.6645001,23.8975248 24.5705651,25.4149647 20.6736907,25.8591732 C21.3013869,26.4159937 21.8606914,27.5079443 21.8606914,29.1819715 C21.8606914,31.5827772 21.8404057,33.5150098 21.8404057,34.1060002 C21.8404057,34.5834872 22.155413,35.1429818 23.0424757,34.9667841 C29.9920513,32.5915315 35,25.8680871 35,17.9430513 C35,8.03319093 27.1648106,0 17.5001449,0" ></path>
                <path d="M6.98118763,26.2686254 C6.92516855,26.4310327 6.72636401,26.4797549 6.5452497,26.3682352 C6.36076582,26.2615878 6.25715159,26.0401726 6.31696143,25.8772239 C6.37171692,25.7099444 6.57094266,25.6633877 6.75500534,25.7754487 C6.93991042,25.8820961 7.04520943,26.1056768 6.98118763,26.2686254" ></path>
                <path d="M7.62739215,27.087493 C7.51358585,27.1925618 7.29111033,27.1437658 7.14015891,26.9777019 C6.9840704,26.8120316 6.9548285,26.590482 7.07021545,26.4838391 C7.1875782,26.3787703 7.40333599,26.4279598 7.55981966,26.5936301 C7.71590816,26.761268 7.74633554,26.9812436 7.62739215,27.087493" ></path>
                <path d="M8.29569127,27.8231401 C8.16009934,27.9077792 7.93838821,27.8284095 7.80133042,27.6515565 C7.66573849,27.4747035 7.66573849,27.2626117 7.80426214,27.1776432 C7.94168639,27.0926748 8.16009934,27.1690805 8.29898945,27.3446162 C8.43421491,27.5244331 8.43421491,27.736525 8.29569127,27.8231401" ></path>
                <path d="M9.0415539,28.5004721 C8.9390612,28.6182867 8.72076103,28.5866542 8.56098388,28.4259099 C8.39749099,28.2687162 8.35197308,28.0456754 8.45477543,27.9278608 C8.55850671,27.8097234 8.77804547,27.8429697 8.9390612,28.0024229 C9.10131551,28.1592939 9.15085881,28.3839486 9.0415539,28.5004721" ></path>
                <path d="M10.4927899,29.0722346 C10.4527478,29.2518318 10.2665243,29.3334669 10.0789295,29.2571476 C9.89160895,29.1785501 9.76901411,28.9681973 9.80686218,28.7867016 C9.8458073,28.6059653 10.0328536,28.5209129 10.2218197,28.602548 C10.4088659,28.6807658 10.531735,28.8895998 10.4927899,29.0722346" ></path>
                <path d="M11.8999017,29.6351062 C11.9044868,29.832526 11.7480541,29.9962496 11.5544011,29.9998174 C11.3596693,30.0061602 11.2021577,29.8464009 11.2,29.6521525 C11.2,29.4527507 11.3529265,29.2906128 11.5476583,29.2858557 C11.7413113,29.2803057 11.8999017,29.4388758 11.8999017,29.6351062" ></path>
                <path d="M13.2973903,28.8397519 C13.3206845,29.0286151 13.1855242,29.2225302 12.9923994,29.274215 C12.8025249,29.3239568 12.6267353,29.2073746 12.6026286,29.0200657 C12.5790635,28.8265392 12.7166616,28.6326241 12.9062652,28.5824937 C13.0996608,28.5343064 13.2727418,28.6477798 13.2973903,28.8397519" ></path>
            </g>
        </g>
    </g>
</svg>