<?xml version="1.0" encoding="UTF-8" standalone="no"?>
<svg
   width="50"
   height="50"
   version="1.1"
   id="svg6"
   sodipodi:docname="logo.svg"
   inkscape:version="1.2 (dc2aeda, 2022-05-15)"
   xmlns:inkscape="http://www.inkscape.org/namespaces/inkscape"
   xmlns:sodipodi="http://sodipodi.sourceforge.net/DTD/sodipodi-0.dtd"
   xmlns="http://www.w3.org/2000/svg"
   xmlns:svg="http://www.w3.org/2000/svg">
  <defs
     id="defs10" />
  <sodipodi:namedview
     id="namedview8"
     pagecolor="#ffffff"
     bordercolor="#000000"
     borderopacity="0.25"
     inkscape:showpageshadow="2"
     inkscape:pageopacity="0.0"
     inkscape:pagecheckerboard="0"
     inkscape:deskcolor="#d1d1d1"
     showgrid="false"
     inkscape:zoom="12.65311"
     inkscape:cx="11.064474"
     inkscape:cy="23.670071"
     inkscape:window-width="1920"
     inkscape:window-height="943"
     inkscape:window-x="1440"
     inkscape:window-y="25"
     inkscape:window-maximized="0"
     inkscape:current-layer="layer1" />
  <g
     inkscape:groupmode="layer"
     id="layer1"
     inkscape:label="Layer 1">
    <path
       d="M25 0C11.202 0 0 11.202 0 25s11.202 25 25 25h25V25C50 11.202 38.798 0 25 0zm0 5.383A19.617 19.617 0 0 1 44.617 25 19.617 19.617 0 0 1 25 44.617 19.617 19.617 0 0 1 5.383 25 19.617 19.617 0 0 1 25 5.383z"
       id="path2"
       inkscape:label="head" />
    <path
       id="path3330"
       style="fill:#ff0000;stroke-width:0.943276"
       d="M 31.5,25 A 6.5,6.5 0 0 1 25,31.5 6.5,6.5 0 0 1 18.5,25 6.5,6.5 0 0 1 25,18.5 6.5,6.5 0 0 1 31.5,25 Z"
       inkscape:label="eye" />
  </g>
</svg>
