<svg xmlns="http://www.w3.org/2000/svg" id="logo" viewBox="0 0 50 50">
  <path d="M25 0c-13.802 .0064-24.992 11.1931-25 24.996c.008 13.805 11.194 24.994 25 25h25v-25c-0.008-13.8029-11.198-24.9896-25-24.996Zm0 5.3817c10.831 0 19.615 8.7816 19.615 19.6143c0 10.833-8.784 19.615-19.615 19.615c-10.831 0-19.615-8.782-19.615-19.615c0-10.8327 8.784-19.6143 19.615-19.6143Z"/>
  <path d="M13 6.5c0 3.5899-2.9061 6.4919-6.49597 6.4919c-3.58985 0-6.50403-2.902-6.50403-6.4919c0-3.58985 2.91015-6.5 6.5-6.5c3.5899 0 6.5 2.91015 6.5 6.5Z" fill="red" clip-rule="evenodd" fill-rule="evenodd" transform="translate(18.5,18.50403)">
    <animate 
        attributeName="d"
        dur="10s"
        repeatCount="indefinite"
        values="M13,6.5C13,10.0899,10.0939,12.9919,6.50403,12.9919C2.91418,12.9919,0,10.0899,0,6.5C0,2.91015,2.91015,0,6.5,0C10.0899,0,13,2.91015,13,6.5Z;
                M13,6.5C13,10.0899,10.0939,12.9919,6.50403,12.9919C2.91418,12.9919,0,10.0899,0,6.5C0,2.91015,2.91015,0,6.5,0C10.0899,0,13,2.91015,13,6.5Z;
                M13,6.5C13,10.0899,10.0939,4.9919,6.50403,4.9919C2.91418,4.9919,0,10.0899,0,6.5C0,2.91015,2.91015,0,6.5,0C10.0899,0,13,2.91015,13,6.5Z;
                M13,6.5C13,10.0899,10.0939,4.9919,6.50403,4.9919C2.91418,4.9919,0,10.0899,0,6.5C0,2.91015,2.91015,0,6.5,0C10.0899,0,13,2.91015,13,6.5Z;
                M13,6.5C13,10.0899,10.0899,12.996,6.5,12.996C2.91015,12.996,0,10.0899,0,6.5C0,2.91015,2.91015,0,6.5,0C10.0899,0,13,2.91015,13,6.5Z
        "
        keyTimes="0; 0.93; 0.94; 0.99; 1"
    />
  </path>
</svg>