<?xml version="1.0" encoding="UTF-8" standalone="no"?>
<!-- Created with Keyshape -->
<svg xmlns="http://www.w3.org/2000/svg" id="logo" viewBox="0 0 50 50" text-rendering="geometricPrecision" shape-rendering="geometricPrecision" style="white-space: pre;">
    <path id="head" d="M126.351,84.914C112.549,84.9204,101.359,96.1071,101.351,109.91C101.359,123.715,112.545,134.904,126.351,134.91L151.351,134.91L151.351,109.91C151.343,96.1071,140.153,84.9204,126.351,84.914ZM126.351,90.2957C137.182,90.2957,145.966,99.0773,145.966,109.91C145.966,120.743,137.182,129.525,126.351,129.525C115.52,129.525,106.736,120.743,106.736,109.91C106.736,99.0773,115.52,90.2957,126.351,90.2957Z" stroke-width="0.264583" fill="#ffffff" transform="translate(6.615,6.6145) translate(-107.966,-91.5285)"/>
    <path id="eye" d="M13,6.5C13,10.0899,10.0939,12.9919,6.50403,12.9919C2.91418,12.9919,0,10.0899,0,6.5C0,2.91015,2.91015,0,6.5,0C10.0899,0,13,2.91015,13,6.5Z" fill="#ff0000" stroke-width="0.510105" clip-rule="evenodd" fill-rule="evenodd" stroke-linejoin="round" stroke-miterlimit="2" transform="translate(25,25) translate(-6.5,-6.49597)">
        <animate 
            attributeName="d"
            dur="3s"
            repeatCount="indefinite"
            values="M13,6.5C13,10.0899,10.0939,12.9919,6.50403,12.9919C2.91418,12.9919,0,10.0899,0,6.5C0,2.91015,2.91015,0,6.5,0C10.0899,0,13,2.91015,13,6.5Z;
                    M13,6.5C13,10.0899,10.0939,12.9919,6.50403,12.9919C2.91418,12.9919,0,10.0899,0,6.5C0,2.91015,2.91015,0,6.5,0C10.0899,0,13,2.91015,13,6.5Z;
                    M13,6.5C13,10.0899,10.0939,4.9919,6.50403,4.9919C2.91418,4.9919,0,10.0899,0,6.5C0,2.91015,2.91015,0,6.5,0C10.0899,0,13,2.91015,13,6.5Z;
                    M13,6.5C13,10.0899,10.0939,4.9919,6.50403,4.9919C2.91418,4.9919,0,10.0899,0,6.5C0,2.91015,2.91015,0,6.5,0C10.0899,0,13,2.91015,13,6.5Z;
                    M13,6.5C13,10.0899,10.0899,12.996,6.5,12.996C2.91015,12.996,0,10.0899,0,6.5C0,2.91015,2.91015,0,6.5,0C10.0899,0,13,2.91015,13,6.5Z
            "
            keyTimes="0; 0.866667; 0.9; 0.966667; 1"
        />
    </path>
</svg>
